<?xml version="1.0" standalone="no"?>
<!DOCTYPE svg PUBLIC "-//W3C//DTD SVG 1.1//EN" "http://www.w3.org/Graphics/SVG/1.1/DTD/svg11.dtd" >
<svg xmlns="http://www.w3.org/2000/svg">
<metadata>
Created by FontForge 20120731 at Tue Jun 13 15:41:18 2017
 By admin
</metadata>
<defs>
<font id="iconfont" horiz-adv-x="1024" >
  <font-face 
    font-family="iconfont"
    font-weight="500"
    font-stretch="normal"
    units-per-em="1024"
    panose-1="2 0 6 3 0 0 0 0 0 0"
    ascent="896"
    descent="-128"
    x-height="792"
    bbox="-1 -207 1068 896"
    underline-thickness="0"
    underline-position="0"
    unicode-range="U+0078-E8C7"
  />
<missing-glyph 
 />
    <glyph glyph-name=".notdef" 
 />
    <glyph glyph-name=".notdef" 
 />
    <glyph glyph-name=".null" horiz-adv-x="0" 
 />
    <glyph glyph-name="nonmarkingreturn" horiz-adv-x="341" 
 />
    <glyph glyph-name="x" unicode="x" horiz-adv-x="1001" 
d="M281 543q-27 -1 -53 -1h-83q-18 0 -36.5 -6t-32.5 -18.5t-23 -32t-9 -45.5v-76h912v41q0 16 -0.5 30t-0.5 18q0 13 -5 29t-17 29.5t-31.5 22.5t-49.5 9h-133v-97h-438v97zM955 310v-52q0 -23 0.5 -52t0.5 -58t-10.5 -47.5t-26 -30t-33 -16t-31.5 -4.5q-14 -1 -29.5 -0.5
t-29.5 0.5h-32l-45 128h-439l-44 -128h-29h-34q-20 0 -45 1q-25 0 -41 9.5t-25.5 23t-13.5 29.5t-4 30v167h911zM163 247q-12 0 -21 -8.5t-9 -21.5t9 -21.5t21 -8.5q13 0 22 8.5t9 21.5t-9 21.5t-22 8.5zM316 123q-8 -26 -14 -48q-5 -19 -10.5 -37t-7.5 -25t-3 -15t1 -14.5
t9.5 -10.5t21.5 -4h37h67h81h80h64h36q23 0 34 12t2 38q-5 13 -9.5 30.5t-9.5 34.5q-5 19 -11 39h-368zM336 498v228q0 11 2.5 23t10 21.5t20.5 15.5t34 6h188q31 0 51.5 -14.5t20.5 -52.5v-227h-327z" />
    <glyph glyph-name="gouwuche" unicode="&#xe600;" 
d="M339 35q19 0 36 -7t30 -19.5t20 -29.5t7 -36t-7 -36t-20 -29.5t-30 -20t-36 -7.5q-20 0 -36.5 7.5t-29.5 20t-20 29.5t-7 36t7 36t20 29.5t29.5 19.5t36.5 7zM755 33q19 0 36.5 -7t30 -19.5t20 -29.5t7.5 -36t-7.5 -36t-20 -29.5t-30 -20t-36.5 -7.5t-36 7.5t-29.5 20
t-20 29.5t-7.5 36t7.5 36t20 29.5t29.5 19.5t36 7zM923 601q28 0 43.5 -7.5t22 -18.5t6 -23.5t-3.5 -21.5t-12.5 -37t-21.5 -61.5t-23.5 -66.5t-17.5 -52q-13 -40 -33 -55.5t-49 -15.5h-525l15 -90h504q48 0 48 -41q0 -20 -9.5 -34.5t-37.5 -14.5h-524q-20 0 -33.5 9
t-22.5 23.5t-14.5 31.5t-8.5 32q-1 6 -5.5 29t-11 57.5t-14.5 77t-16 85.5q-19 101 -43 225h-75q-15 0 -25 7.5t-16.5 18t-9 22.5t-2.5 22q0 20 13.5 33t36.5 13h101q20 0 32 -6t19 -15t10 -19t5 -17q2 -8 4 -22.5t4 -29.5q3 -18 6 -38h684v0z" />
    <glyph glyph-name="xiajiantou" unicode="&#xe60e;" 
d="M69 524v0l-70 -69l512 -508l511 508l-69 69h-1v0l-441 -439z" />
    <glyph glyph-name="kefu" unicode="&#xe601;" 
d="M510 673q-117 0 -199.5 -81t-82.5 -195.5t82.5 -195.5t199.5 -81t200 81t83 195.5t-83 195.5t-200 81zM184 291v255q-5 0 -10 -1q44 96 134.5 155t201.5 59t202 -59t135 -155q-5 1 -11 1v-255q54 0 92.5 37t38.5 90q0 36 -18 65.5t-49 46.5q-43 120 -149.5 195.5
t-240 75.5t-240.5 -75.5t-149 -195.5q-31 -17 -49 -46.5t-18 -65.5q0 -53 38 -90t92 -37zM792 144q-56 -51 -128.5 -79.5t-153 -28.5t-153 28t-128.5 80q-102 -52 -160.5 -140.5t-58.5 -205.5h1004q0 118 -59 206.5t-163 139.5z" />
    <glyph glyph-name="stars" unicode="&#xe604;" horiz-adv-x="1060" 
d="M720 637h5q4 -3 15 -8.5t15 -10.5q1 -16 -1 -32l-18 -7h-10.5h-10.5l-19 31q3 1 10 4t9 4q1 2 2.5 9.5t2.5 9.5zM542 587q0 1 4 16.5t11 18.5q6 -2 10.5 -6t10 -10.5t8.5 -9.5q21 1 42 1q-3 -14 -19 -39q11 -26 12 -41q-21 4 -41 7q-4 -2 -15 -10.5t-19 -9.5
q-7 4 -7.5 20t-1.5 18q-21 14 -34 26q17 9 39 19zM271 546q5 6 12 24t16 28.5t24 8.5q7 -8 12.5 -18t11.5 -23t9 -19q2 -1 30 -4.5t41 -9.5q6 -13 -1 -24t-22.5 -23t-20.5 -18q0 -3 5.5 -30.5t1.5 -41.5q-8 -6 -19.5 -3.5t-19 6.5t-18.5 11t-19 9q-7 -2 -18 -8.5t-18.5 -11
t-19 -7.5t-19.5 3q-3 15 -2.5 23.5t4.5 25t4 24.5q-3 3 -15 14t-19.5 18.5t-13.5 16.5q1 15 13.5 20t33 5.5t27.5 3.5zM756 500q24 -22 51 -20q-2 -4 -7 -12.5t-6 -10.5q6 -20 8 -27q-22 8 -53 -10q0 3 -1.5 12.5t-1.5 12.5q-8 7 -23 19q15 7 26 11q1 3 3.5 12t3.5 13z
M577 403q6 4 15.5 24t23.5 21q6 -6 26 -45q6 -2 19 -2.5t22 -3.5t14 -10q-2 -8 -8 -15t-15 -14.5t-13 -12.5q1 -5 3.5 -17t3 -17.5t-0.5 -17.5q-13 -3 -19 -1.5t-19 9t-18 9.5q-36 -18 -47 -22q-10 5 -10.5 14.5t3.5 23.5t4 19q-3 5 -14.5 14t-17 17t0.5 18q8 2 24 4.5
t23 4.5zM354 251q9 16 23 44.5t26 51.5t23 43q4 -1 15 -6q15 -25 39.5 -74l29.5 -59q20 -3 68 -9.5t73 -10.5q14 -2 21 -14q-21 -22 -63 -61.5t-51 -48.5l12 -66t13 -85q-1 -1 -5.5 -4t-5.5 -4q-28 11 -77.5 37t-62.5 33q-16 -8 -63 -32.5t-73 -36.5q-8 2 -17 5
q4 23 8.5 48.5t10 56.5t8.5 48q-108 103 -114 109q1 2 5.5 7t5.5 6q28 5 79.5 12t71.5 10zM793 314q7 13 14 24l16 -24q4 -1 13 -2.5t14 -2.5q-20 -20 -19 -50q-19 14 -50 -1q0 4 0.5 14t0.5 14q-9 12 -17 23q14 2 28 5zM734 133q5 7 11 23.5t14 26.5t21 10q4 -6 31 -59
q8 -3 25 -3.5t29 -4t18 -13.5q-5 -9 -13 -17.5t-19 -18t-16 -15.5q0 -8 4 -23.5t5 -24t-3 -23.5q-11 -1 -22.5 3.5t-25 13t-20.5 11.5q-3 -1 -28.5 -15.5t-40.5 -11.5q-3 15 -2 23t4.5 23.5t3.5 24.5q-40 38 -49 48q6 11 18.5 15t29.5 4.5t25 2.5z" />
    <glyph glyph-name="jiantou" unicode="&#xe62c;" 
d="M592 -207l-537 506l536 508l34 -35l-500 -473l499 -471z" />
    <glyph glyph-name="tishi" unicode="&#xe621;" 
d="M510 -85q104 0 192.5 51.5t140 140t51.5 193t-51.5 193t-140 140t-192.5 51.5t-192.5 -51.5t-140 -140t-51.5 -193t51.5 -193t140 -140t192.5 -51.5v0zM481 113v265q0 13 9 22t21 9q31 0 31 -32v-264v0q0 -13 -9 -22t-21.5 -9t-21.5 9t-9 22v0zM548 499.5
q0 -15.5 -11 -26.5t-26 -11t-25.5 11t-10.5 26.5t10.5 26t25.5 10.5t26 -10.5t11 -26z" />
    <glyph glyph-name="gouwuche1" unicode="&#xe622;" horiz-adv-x="1069" 
d="M1063 -115v0v0zM1066 -107q1 1 1.5 2t0.5 2zM954 527v1v0.5v1v0.5q0 9 -6.5 15.5t-15.5 6.5h-655l-1.5 -0.5l-1.5 -0.5l-23 148q-1 8 -8.5 13t-16.5 3v0q-1 0 -1.5 0.5l-0.5 0.5h-131q-10 0 -16.5 -7t-6.5 -16t6.5 -16t16.5 -7h118l92 -580q1 -7 7 -12t15 -4l0.5 -0.5
t1.5 -0.5h469q6 0 10.5 6.5t4.5 15.5t-4.5 15.5t-10.5 6.5h-454l-17 113h516q3 0 6 2h1h1q7 5 12 16l-4 -4v1l4 3l91 274v0zM826 274h-506l-1 -0.5l-1 -0.5l-37 235h621zM355 -16zM311 -16q0 18 13 31t31 13t30.5 -13t12.5 -31t-12.5 -30.5t-30.5 -12.5t-31 12.5t-13 30.5z
M746 -15zM703 -15.5q0 17.5 12.5 30.5t30.5 13t30.5 -13t12.5 -30.5t-12.5 -30.5t-30.5 -13t-30.5 13t-12.5 30.5z" />
    <glyph glyph-name="xiajiantou1" unicode="&#xe67f;" 
d="M912 545l45 -46l-445 -446l-446 446l46 46l400 -401z" />
    <glyph glyph-name="shijian" unicode="&#xe695;" 
d="M524 715q117 0 215.5 -57.5t156 -156.5t57.5 -215.5t-57.5 -215.5t-156 -156.5t-215.5 -57.5t-215.5 57.5t-156 156.5t-57.5 215.5t57.5 215.5t156 156.5t215.5 57.5v0zM427 257h85v300h-85v-300v0zM512 257h213v86h-213v-86v0z" />
    <glyph glyph-name="chevron-copy" unicode="&#xe61f;" 
d="M249 362l479 -480q11 -10 25.5 -10t25 10.5t10.5 25t-10 25.5l-456 456l448 448q11 10 11 24.5t-10.5 24.5t-24.5 10t-25 -10l-465 -466q-1 0 -4 -6q-1 0 -2 -0.5t-2 -1.5q-10 -10 -10 -25t10 -25z" />
    <glyph glyph-name="comiisshangjiantou" unicode="&#xe628;" 
d="M949 207l-411 407q-1 0 -1.5 0.5l-1.5 1.5v0v0q-11 11 -26.5 11t-26.5 -11l-407 -411q-11 -11 -11 -26.5t11 -26.5t26 -11q16 0 27 11l381 385l387 -383q11 -11 27 -11q15 0 26 11t11 26.5t-11 26.5v0zM949 207z" />
    <glyph glyph-name="chevron-copy-copy-copy-copy-copy-copy" unicode="&#xe624;" 
d="M775 406l-479 480q-11 10 -25.5 10t-25 -10.5t-10.5 -25t10 -25.5l456 -456l-448 -448q-11 -10 -11 -24.5t10.5 -24.5t24.5 -10t25 10l465 466q1 0 4 6q1 0 2 0.5t2 1.5q10 10 10 25t-10 25z" />
    <glyph glyph-name="shuangjiantou2" unicode="&#xe62b;" 
d="M157 378q-7 -7 -17 -7t-17 7l-4 4q-6 7 -6 16.5t7 16.5l413 405q7 7 17 7t17 -7l4 -4q7 -7 7 -17t-7 -17l-414 -404v0zM157 378zM155 421l414 -404q7 -7 7 -17t-7 -17l-4 -4q-7 -7 -17 -7t-17 7l-413 405zM168 368q-9 -8 -21 -8t-21 8l-5 5q-9 9 -8.5 21.5t8.5 20.5
l411 404q8 8 20.5 8t20.5 -9l5 -5q9 -8 9 -20.5t-9 -20.5l-410 -404v0zM168 368zM168 420l410 -404q9 -8 9 -20.5t-9 -20.5l-5 -5q-8 -9 -20.5 -9t-20.5 8l-411 404q-8 9 -8.5 21t8.5 21l5 5q9 8 21 8.5t21 -8.5v0zM168 420zM485 368q-9 -8 -21 -8t-21 8l-5 5q-8 9 -8 21.5
t9 20.5l410 404q9 8 21 8t21 -9l5 -5q8 -8 8 -20.5t-9 -20.5l-410 -404v0zM485 368zM485 420l410 -404q9 -8 9 -20.5t-8 -20.5l-5 -5q-9 -9 -21 -9t-21 8l-410 404q-9 9 -9 21t8 21l5 5q9 8 21 8.5t21 -8.5v0zM485 420z" />
    <glyph glyph-name="shouji" unicode="&#xe611;" 
d="M754 -62h-484q-13 0 -22.5 9t-9.5 21v816q0 13 9.5 22t22.5 9h484q13 0 22.5 -9t9.5 -22v-816q0 -12 -9.5 -21t-22.5 -9zM519.5 -23q23.5 0 40 15.5t16.5 38t-16.5 38.5t-40 16t-40 -16t-16.5 -38.5t16.5 -38t40 -15.5zM559 785h-113h-2q-14 0 -14 -8t16 -8h113
q17 0 17 8t-15 8h-2zM722 690q0 13 -9.5 22t-23.5 9h-354q-14 0 -23.5 -9t-9.5 -22v-537q0 -13 9.5 -22t23.5 -9h354q14 0 23.5 9t9.5 22v537z" />
    <glyph glyph-name="icon1" unicode="&#xe64d;" 
d="M959 740q-63 0 -101.5 38.5t-38.5 101.5l-308 -28l-308 28q0 -63 -38.5 -101.5t-101.5 -38.5q-35 -403 203 -676q107 -122 233 -186l12 -6l17 8.5t45 27t66.5 46.5t76 68t79.5 91t71.5 115.5t58.5 141.5t32.5 170t1.5 200zM604 460h111v-100h-147v-43h147v-100h-147v-121
h-115v121h-152v100h152v43h-152v100h115l-158 272h131q101 -186 123 -231q4 6 35 64t60.5 112.5l29.5 54.5h127z" />
    <glyph glyph-name="jiantou-copy" unicode="&#xe606;" 
d="M256 384l465 512l47 -51l-419 -461l419 -461l-47 -51z" />
    <glyph glyph-name="jiantou1" unicode="&#xe65a;" 
d="M759 384q4 17 -8 28l-475 475q-9 9 -21.5 9t-21.5 -9t-9 -21.5t9 -21.5l460 -460l-460 -460q-9 -9 -9 -21.5t9 -21.5t21.5 -9t21.5 9l475 475q12 11 8 28z" />
    <glyph glyph-name="shuangjiantou3" unicode="&#xe694;" 
d="M512 -1l-35 36l349 349l-349 349l35 36l385 -385zM163 -1l-36 36l350 349l-350 349l36 36l384 -385z" />
    <glyph glyph-name="bangzhuzhongxin" unicode="&#xe615;" 
d="M511 833q-91 0 -174 -35.5t-143 -95.5t-95.5 -143t-35.5 -174t35.5 -174t95.5 -143t143 -96t174 -36t174 36t143.5 96t96 143t35.5 174t-35.5 174t-96 143t-143.5 95.5t-174 35.5v0zM511 64q-20 0 -34 14t-14 34t14 34t34 14t34 -14t14 -34t-14 -34t-34 -14v0zM600 392
q-19 -19 -28.5 -29.5t-19 -26t-9.5 -27.5v-54q0 -13 -9 -22.5t-22.5 -9.5t-23 9.5t-9.5 22.5v54q0 24 13 49.5t26 40t37 38.5q17 17 26 26.5t17.5 23.5t8.5 24q0 40 -28 68.5t-68 28.5t-68 -27.5t-28 -67.5q0 -13 -9.5 -22.5t-22.5 -9.5t-22.5 9.5t-9.5 22.5q0 66 47 112.5
t113.5 46.5t113 -47t46.5 -114q0 -22 -12 -45.5t-23.5 -37t-35.5 -36.5v0z" />
    <glyph glyph-name="xiaolian" unicode="&#xe8c7;" 
d="M512 868q-99 0 -188.5 -38t-154.5 -103t-103 -154.5t-38 -188.5t38 -188.5t103 -154.5t154.5 -103t188.5 -38t188.5 38t154.5 103t103 154.5t38 188.5t-38 188.5t-103 154.5t-154.5 103t-188.5 38zM650.5 592.5q13.5 13.5 33 13.5t33 -13.5t13.5 -33t-13.5 -33t-33 -13.5
t-33 13.5t-13.5 33t13.5 33zM350.5 606q19.5 0 33 -13.5t13.5 -33t-13.5 -33t-33 -13.5t-33.5 13.5t-14 33t14 33t33.5 13.5zM760 265q-46 -54 -110 -84t-134 -30q-75 0 -141 32.5t-111 91.5q-6 7 -4.5 16.5t8.5 15.5q6 5 14 5v0q12 0 18 -9q39 -51 95.5 -78.5t120.5 -27.5
q60 0 114.5 25.5t93.5 72.5q7 8 18 8q8 0 15 -5q7 -6 8 -16v-2q0 -8 -5 -15z" />
    <glyph glyph-name="peisong" unicode="&#xe605;" 
d="M577 649q0 3 -2 10t-2 9q-14 14 -28 14h-415q-17 -4 -27 -13t-10 -20v-428q0 -17 10 -27t27 -10h56q7 38 34.5 63.5t63.5 29.5q104 7 126 -93h125q10 0 14 5q19 6 19 32v419q4 2 6.5 4.5t2.5 3.5v1zM931 379q-7 35 -28 56q-7 7 -18.5 23.5t-18.5 23.5q-7 9 -23.5 27.5
t-23.5 28.5q-14 14 -37 14h-154q-23 -8 -23 -33v-303q0 -10 11 -18.5t22 -8.5q5 33 37 65q35 28 74 28q38 0 72 -25.5t40 -67.5h37q24 7 24 32v149q4 2 6 4.5t3 3.5v1zM707 375v121h75q9 0 19 -10q11 -16 34.5 -46t34.5 -47q3 -2 5 -9t5 -9v-5h-173v5zM302.5 244
q-31.5 0 -53 -20.5t-21.5 -49t21.5 -49t53 -20.5t53 20.5t21.5 49t-21.5 49t-53 20.5zM754 244q-31 0 -52.5 -20.5t-21.5 -49t21.5 -49t52.5 -20.5t53 20.5t22 49t-22 49t-53 20.5z" />
    <glyph glyph-name="zhanghaoguanli" unicode="&#xe61e;" 
d="M919 96q4 -15 7 -39q4 -28 4 -48q0 -23 -4 -46q-4 -21 -12 -33q-6 -8 -29 -15q-25 -7 -58 -13q-16 -3 -77 -12q-41 -5 -85 -9q-47 -5 -83 -6q-41 -1 -71 -1q-34 0 -70 2q-21 1 -82 5q-41 3 -83 8q-46 5 -76 10q-34 5 -58 10q-25 6 -30 11q-10 8 -16 49q-5 42 5 108
q5 39 31 58q24 19 58 31q31 11 70 21q37 9 63 27q20 11 33 25q12 12 17 25q5 11 5 25q0 8 -1 30q-2 24 -16 38q-14 13 -31 28q-9 7 -15 19q-8 17 -12 26q-6 17 -10 32q-1 1 -7 8q-5 10 -7 15q-3 5 -11 27q-5 19 -7 32q-2 15 1 23q0 12 5 21q0 39 5 78q5 33 14 69
q10 38 32 68q20 26 44 46q24 18 49 28t51 14q28 4 49 4q26 -2 42 -6t26 -9q9 -5 17 -14q7 -7 16 -15h21q10 0 20 -3q11 -3 19 -10q8 -8 21 -22q25 -33 38 -73q12 -41 18 -75q6 -45 6 -81q2 -4 4 -13q1 -15 1 -19q1 -11 -1 -28q-3 -23 -7 -34q-5 -14 -10 -20q-5 -7 -12 -11
q-6 -21 -11 -32q-3 -9 -11 -27q-6 -12 -16 -19q-16 -13 -31 -26q-12 -11 -17 -36q-3 -17 -2 -31t8 -32q8 -17 24 -30q15 -14 45 -26q28 -10 57 -18q34 -10 60 -19q29 -11 51 -27q22 -17 32 -43v0z" />
    <glyph glyph-name="sousuo-sousuo" unicode="&#xe612;" 
d="M704 664q-64 64 -150 86.5t-172 0t-150 -86.5t-86.5 -150t0 -172t86.5 -150q47 -46 107.5 -72t128.5 -26t129 26t107 72t72 107t26 129t-26 128.5t-72 107.5zM159.5 119.5q-60.5 60.5 -94 140t-33.5 168.5t34.5 169.5t93 139t139 93t169.5 34.5t169.5 -34.5t139 -93
t93 -139t34.5 -169.5t-33.5 -168.5t-94 -140t-140 -94t-168.5 -33.5t-168.5 33.5t-140 94zM974 -78q-17 -18 -41.5 -18t-42.5 18l-84 84q-17 17 -17 41.5t17 42t42 17.5t42 -17l84 -84q18 -18 18 -42.5t-18 -41.5v0z" />
    <glyph glyph-name="sjiantou03" unicode="&#xe63d;" 
d="M478 771l-392 -399q-12 -13 -12 -30.5t12.5 -30.5t30 -13t29.5 13l365 371l365 -371q12 -13 29.5 -13t30 13t12.5 30.5t-13 30.5l-391 399q-13 14 -33 12q-20 2 -33 -12v0zM511 471q-19 1 -33 -12l-392 -399q-12 -13 -12 -31t12.5 -30.5t30 -12.5t29.5 13l365 371
l365 -371q12 -13 29.5 -13t30 12.5t12.5 30.5t-13 31l-391 399q-14 13 -33 12v0zM511 471z" />
    <glyph glyph-name="shoucang1" unicode="&#xe6a3;" 
d="M722 778q-92 0 -210 -141q-118 141 -210 141q-112 0 -191 -76.5t-79 -184.5q0 -39 14 -79t27 -60.5t37 -54.5q29 -39 77.5 -87t92 -84.5t94 -75t70.5 -52.5t33 -23q16 -11 35 -11t35 11q13 9 33 23.5t70.5 52.5t94 74.5t92 84.5t77.5 87q24 34 37 54.5t27 60.5t14 79
q0 108 -79 184.5t-191 76.5z" />
  </font>
</defs>
</svg>
